<svg width="16" height="16" viewBox="0 0 16 16" fill="none" xmlns="http://www.w3.org/2000/svg">
<path d="M11.7996 11.3993C11.7996 11.6202 11.6205 11.7993 11.3996 11.7993H11.0003C10.7794 11.7993 10.6003 11.6202 10.6003 11.3993V7.21227C10.6003 6.85591 10.1695 6.67744 9.9175 6.92942L5.40662 11.4403C5.25041 11.5965 4.99715 11.5965 4.84094 11.4403L4.55897 11.1583C4.40276 11.0021 4.40276 10.7489 4.55897 10.5926L9.06984 6.08177C9.32183 5.82978 9.14336 5.39893 8.787 5.39893H4.59995C4.37904 5.39893 4.19995 5.21984 4.19995 4.99893V4.59971C4.19995 4.37879 4.37904 4.19971 4.59995 4.19971H11.3996C11.6205 4.19971 11.7996 4.37879 11.7996 4.59971V11.3993Z" fill="#AC873E"/>
</svg>
