<svg width="48" height="40" viewBox="0 0 48 40" fill="none" xmlns="http://www.w3.org/2000/svg">
<g filter="url(#filter0_d_2_2641)">
<rect x="2" width="44" height="36" rx="18" fill="white"/>
<path d="M31.7998 19.5996C31.9102 19.5996 31.9999 19.6894 32 19.7998V21C32 21.1105 31.9103 21.2002 31.7998 21.2002H16.2002C16.0897 21.2002 16 21.1105 16 21V19.7998C16.0001 19.6894 16.0898 19.5996 16.2002 19.5996H31.7998ZM31.7998 14C31.9103 14 32 14.0897 32 14.2002V15.4004C31.9998 15.5107 31.9101 15.5996 31.7998 15.5996H16.2002C16.0899 15.5996 16.0002 15.5107 16 15.4004V14.2002C16 14.0897 16.0897 14 16.2002 14H31.7998Z" fill="black"/>
</g>
<defs>
<filter id="filter0_d_2_2641" x="0" y="0" width="48" height="40" filterUnits="userSpaceOnUse" color-interpolation-filters="sRGB">
<feFlood flood-opacity="0" result="BackgroundImageFix"/>
<feColorMatrix in="SourceAlpha" type="matrix" values="0 0 0 0 0 0 0 0 0 0 0 0 0 0 0 0 0 0 127 0" result="hardAlpha"/>
<feOffset dy="2"/>
<feGaussianBlur stdDeviation="1"/>
<feColorMatrix type="matrix" values="0 0 0 0 0.227451 0 0 0 0 0.227451 0 0 0 0 0.227451 0 0 0 0.08 0"/>
<feBlend mode="normal" in2="BackgroundImageFix" result="effect1_dropShadow_2_2641"/>
<feBlend mode="normal" in="SourceGraphic" in2="effect1_dropShadow_2_2641" result="shape"/>
</filter>
</defs>
</svg>
